<svg width="128" height="128" viewBox="0 0 128 128" xmlns="http://www.w3.org/2000/svg">
  <!-- 盾牌轮廓 -->
  <path d="M64 4 L120 24 L120 64 C120 96 96 116 64 124 C32 116 8 96 8 64 L8 24 Z"
        fill="#fa8c16" stroke="#b3500b" stroke-width="2"/>
  <!-- 盾牌内部高光 -->
  <path d="M64 8 L116 26 L116 64 C116 94 94 112 64 120 C34 112 12 94 12 64 L12 26 Z"
        fill="#ffa940" opacity="0.3"/>
  <!-- 心形 -->
  <path d="M64 88 C64 88 44 72 44 56 C44 48 50 42 57 42 C61 42 64 45 64 48 C64 45 67 42 71 42 C78 42 84 48 84 56 C84 72 64 88 64 88 Z"
        fill="#ffffff"/>
  <!-- 心形内部双手托举 -->
  <path d="M52 66 C50 62 50 58 52 55 M76 66 C78 62 78 58 76 55"
        stroke="#fa8c16" stroke-width="2.5" stroke-linecap="round" fill="none"/>
</svg>
